<svg xmlns="http://www.w3.org/2000/svg" viewBox="0 0 1100 1100">
  <defs>
    <linearGradient y2="0" y1="1" x2=".5" x1=".5" spreadMethod="pad" id="a"
      gradientUnits="objectBoundingBox">
      <stop stop-opacity="0" stop-color="#fff" offset="0" />
      <stop stop-color="#e6ebea" offset="1" />
    </linearGradient>
    <linearGradient y2="0" y1="1" x2=".5" x1=".5" spreadMethod="pad" id="b"
      gradientUnits="objectBoundingBox">
      <stop stop-opacity="0" stop-color="#fff" offset="0" />
      <stop stop-color="#e4ebe9" offset="1" />
    </linearGradient>
    <linearGradient y2="0" y1="1" x2=".5" x1=".5" spreadMethod="pad" id="c"
      gradientUnits="objectBoundingBox">
      <stop stop-opacity="0" stop-color="#fff" offset="0" />
      <stop stop-color="#e4ebe9" offset="1" />
    </linearGradient>
    <linearGradient y2="0" y1="1" x2=".5" x1=".5" spreadMethod="pad" id="d"
      gradientUnits="objectBoundingBox">
      <stop stop-opacity="0" stop-color="#fff" offset="0" />
      <stop stop-color="#e4ebe9" offset="1" />
    </linearGradient>
    <linearGradient y2=".132" y1="1.063" x2=".78" x1=".78" spreadMethod="pad" id="e"
      gradientUnits="objectBoundingBox">
      <stop stop-color="#f0f5f5" offset="0" />
      <stop stop-color="#d3e0de" offset="1" />
    </linearGradient>
    <linearGradient y2=".132" y1="1.063" x2=".78" x1=".78" spreadMethod="pad" id="f"
      gradientUnits="objectBoundingBox">
      <stop stop-color="#f0f5f5" offset="0" />
      <stop stop-color="#d3e0de" offset="1" />
    </linearGradient>
    <linearGradient y2=".132" y1="1.063" x2=".78" x1=".78" spreadMethod="pad" id="g"
      gradientUnits="objectBoundingBox">
      <stop stop-color="#f0f5f5" offset="0" />
      <stop stop-color="#d3e0de" offset="1" />
    </linearGradient>
  </defs>
  <path fill="none" d="M50 50h1000v1000H50Z" />
  <path fill-opacity=".48" fill="url(#a)"
    d="m741.7 224.5-.2 234.8-.5 4.6-2.2 8.7-2.2 5.6-2.7 5.2-3.2 4.9-3.7 4.6-4.1 4.1-4.6 3.7-4.9 3.2-5.2 2.7-5.6 2.2-8.7 2.2-9.3.7H338.9l1.9-317.8.3-2.6.6-2.3 1.1-2.2 1.4-2 1.7-1.7 2-1.4 2.2-1.1 2.4-.6 2.6-.2h61.8l2.6.2 2.4.6 2.2 1.1 2 1.4 1.7 1.7 1.4 2 1.1 2.2.6 2.4.3 2.6-.1 25.7 1.1-5.4 1.1-2.3 1.4-2 1.8-1.8 2-1.4 2.3-1.1 2.4-.7 2.7-.2 2.7.2 2.4.7 2.3 1.1 2.1 1.4 1.7 1.8 1.4 2 1.1 2.3.7 2.4.6 5 .8 2.1 1.4 1.7 1.7 1.4 2.1.9 2.3.3h23.6l4.4-.3 4.2-.9 3.9-1.4 3.7-1.8 3.4-2.3 3.1-2.8 2.8-3.1 2.3-3.4 1.8-3.7 1.4-3.9.9-4.2.3-4.4v-12.4l.3-4 .7-3.7 1.3-3.6 1.6-3.3 2.1-3.1 2.4-2.8 2.8-2.4 3.1-2.1 3.3-1.7 3.6-1.2 3.7-.8 4-.2 4 .2 3.7.8 3.5 1.2 3.4 1.7 3 2.1 2.8 2.4 2.5 2.8 2 3.1 1.7 3.3 1.3 3.6.7 3.7.3 4-.1 113.3.6 3.3.7 1.5 1.5 1.9 1.9 1.5 3.1 1.1h3.4l3-1.1 1.9-1.5 1.5-1.9.7-1.5.6-3.3V269H655l.5-2.3.1-5.3-.6-13.9 5.7.3 3.3.6 3.1 1.1 2.9 1.5 2.7 1.8 2.4 2.1 2.1 2.5 1.8 2.6 1.5 3 1.1 3.1.7 3.2.5 5.4.7 1.6 1 1.4 1.4 1.1 1.7.7 1.8.2 1.9-.2 1.6-.7 1.4-1.1 1.1-1.4.7-1.6.2-1.9v-48.3l.3-3.1.6-3 2.2-5.3 3.6-4.6 4.6-3.6 5.4-2.2 6-.9 6.1.9 5.4 2.2 4.6 3.6 3.5 4.6 2.3 5.3.8 6.1Z" />
  <path fill-opacity=".768" fill="url(#b)"
    d="M626.8 365.5V752h291.7l-.4-138.2.4-303.5-.3-4-1.5-7.6-1.3-3.5-2.3-4.5-2.7-4.1-3.3-3.8-3.8-3.3-4.1-2.7-4.5-2.3-7.2-2.3-3.9-.6-4-.2-4.1.2-3.8.6-7.3 2.3-4.5 2.3-4.1 2.7-3.7 3.3-3.3 3.8-2.8 4.1-2.3 4.5-2.2 7.2-.8 7.9v152.5l-.2 2.3-1.5 4.1-2.8 3.3-3.7 2.3-4.5.7-4.4-.7-1.9-1-3.3-2.8-2.2-3.7-.8-4.5v-37.4h-71.9l-.7-2.2-.1-5.4.8-21.3-7.7.3-4.4.9-4.1 1.5-4 2-3.6 2.4-3.2 2.9-2.9 3.2-2.4 3.6-2 4-1.5 4.1-.9 4.4-.5 6.4-.4 1.6-.7 1.4-1.4 1.9-3.4 2.2-3.2.5-3.3-.5-1.4-.7-1.9-1.5-1.5-1.9-.7-1.4-.5-3.3v-65l-.3-4.2-.8-3.9-1.3-3.7-1.8-3.6-2.2-3.2-2.6-2.9-2.9-2.6-3.2-2.2-3.6-1.8-3.7-1.3-4-.8-4.2-.3-4.1.3-4 .8-3.7 1.3-3.6 1.8-3.2 2.2-2.9 2.6-2.6 2.9-2.2 3.2-1.8 3.6-1.3 3.7-.8 3.9-.3 4.2Z" />
  <path fill-opacity=".768" fill="url(#c)"
    d="M155.1 830.6h328l-2.5-432.5-.3-2.6-.7-2.4-1-2.2-1.4-2-1.7-1.7-2-1.4-2.3-1-2.3-.7-2.6-.2h-93l-2.6.2-2.4.7-2.2 1-2 1.4-1.7 1.7-1.4 2-1.1 2.2-.6 2.4-.3 2.6.1 39.5-.3-.1-.3-3.9-.9-3.3-1.4-3-2-2.8-2.3-2.3-2.8-2-3-1.4-3.3-.9-3.6-.4-3.6.4-3.3.9-3.1 1.4-2.7 2-2.4 2.3-1.9 2.8-1.5 3-.9 3.3-.5 5.8-.5 1.9-2.1 3.5-3 2.5-3.7 1.4-2.2.2h-31.7l-4.5-.2-4.3-.7-4.1-1-3.9-1.5-7.4-4-3.3-2.5-5.9-5.9-4.7-6.8-1.8-3.9-1.5-3.9-1-4.1-.7-4.3-.2-21.2-.8-7.9-2.3-7.3-2.2-4.5-2.8-4.1-3.3-3.7-3.7-3.3-4.1-2.8-4.6-2.2-7.2-2.3-7.9-.8-7.9.8-7.2 2.3-4.5 2.2-4.1 2.8-3.8 3.3-3.2 3.7-2.8 4.1-2.3 4.5-2.2 7.3-.6 3.8-.2 4.1v441.7Z" />
  <path fill-opacity=".8" fill="url(#d)"
    d="m1042.9 750-.3 7.8-.8 7.7-1.3 7.7-1.9 7.6-2.4 7.7-2.9 7.7-3.3 7.3-3.9 7.4-4.3 7.3-4.9 7.3-5.5 7.3-6.1 7.4-7.4 8.2-8.2 8.1-9.1 8.1-9.8 8.1-10.7 8.1-10.7 7.3-11.5 7.3-12.3 7.2-13.1 7.1-14 7-13.9 6.4-14.5 6.1-15.1 6-15.7 5.6-15.7 5.3-16.2 4.9-16.7 4.7-17.2 4.4-34.7 7.6-36.3 6.4-36.9 5-18.9 2-38.3 3-19.3.9-39.1.7-39.1-.7-19.3-.9-38.3-3-18.9-2-36.9-5-36.3-6.4-34.7-7.6-17.2-4.4-16.7-4.7-16.2-4.9-15.7-5.3-15.7-5.6-15.1-6-14.5-6.1-13.9-6.4-14-7-13.1-7.1-12.3-7.2-11.5-7.3-10.7-7.3-10.7-8.1-9.8-8.1-9.1-8.1-8.2-8.1-7.4-8.2-6.1-7.4-5.5-7.3-4.9-7.3-4.3-7.3-3.9-7.4-3.3-7.3-2.9-7.7-2.4-7.7-1.9-7.6-1.3-7.7-.8-7.7-.3-7.8.3-7.8.8-7.7 1.3-7.7 1.9-7.6 2.4-7.7 2.9-7.7 3.3-7.3 3.9-7.4 4.3-7.3 4.9-7.3 5.5-7.3 6.1-7.4 7.4-8.2 8.2-8.1 9.1-8.1 9.8-8.1 10.7-8.1 10.7-7.3 11.5-7.3 12.3-7.2 13.1-7.1 14-7 13.9-6.4 14.5-6.1 15.1-6 15.7-5.6 15.7-5.3 16.2-4.9 16.7-4.7 17.2-4.4 34.7-7.6 36.3-6.4 36.9-5 18.9-2 38.3-3 19.3-.9 39.1-.7 39.1.7 19.3.9 38.3 3 18.9 2 36.9 5 36.3 6.4 34.7 7.6 17.2 4.4 16.7 4.7 16.2 4.9 15.7 5.3 15.7 5.6 15.1 6 14.5 6.1 13.9 6.4 14 7 13.1 7.1 12.3 7.2 11.5 7.3 10.7 7.3 10.7 8.1 9.8 8.1 9.1 8.1 8.2 8.1 7.4 8.2 6.1 7.4 5.5 7.3 4.9 7.3 4.3 7.3 3.9 7.4 3.3 7.3 2.9 7.7 2.4 7.7 1.9 7.6 1.3 7.7.8 7.7.3 7.8Z" />
  <path fill="#d8e6e4"
    d="m207.1 668.9 2.8.5 2.3 1.6 1.5 2.3.6 2.7v57.1l-.3 2-.7 1.7-1.1 1.4-1.5 1.1-1.6.7-2 .3-1.9-.3-1.7-.7-1.4-1.1-1.1-1.4-.7-1.7-.3-2 .1-58.5 1.1-2.6 2-1.9 2.5-1.1 1.4-.1Z" />
  <path fill="url(#e)"
    d="m207.1 679.6 4.6-.3 4.4-.6 4.1-1.1 4.1-1.5 3.8-1.9 3.6-2.1 3.4-2.6 3.1-2.8 2.9-3.1 2.5-3.4 2.2-3.6 1.8-3.9 1.5-4 1.1-4.2.7-4.3.2-4.6-.3-3.9-.8-4.5-1.6-4.9-2.3-5.6-3.3-6.3-4.4-7.1-5.5-8-7-8.9-8.5-10-10.3-11.1-14.3 15.8 1 2.2 3.3 5 7.8 11.1-11-6.7-5.3-2.8-2.1-.7-.5.2-6.3 8.2-5 7.5-3.9 6.6-3 5.9-2.1 5.3-1.5 4.7-.8 4.2-.2 3.8.2 4.6.7 4.3 1.1 4.2 1.4 4 1.9 3.9 2.2 3.6 2.5 3.4 2.9 3.1 3.1 2.8 3.4 2.6 3.6 2.1 3.8 1.9 4 1.5 4.2 1.1 4.4.6 4.5.3Z" />
  <path fill="#d8e6e4"
    d="m932.1 692.3 1.6.4 1.3.8.9 1.3.3 1.6v32.7l-.3 1.6-.9 1.3-1.3.8-1.6.3-1.6-.3-1.2-.8-.9-1.3-.3-1.6v-32.7l.3-1.6.9-1.3 1.2-.8 1.6-.4Z" />
  <path fill="url(#f)"
    d="m932.1 698.5 3.5-.3 3.2-.6 3.1-1.1 2.9-1.5 2.6-1.8 2.4-2.1 2.1-2.4 1.8-2.7 1.5-2.9 1-3.1.7-3.2.2-3.5-.2-2.8-.8-3.3-1.4-3.9-2.3-4.4-3.2-5.1-4.3-6-5.6-6.8-7.2-7.9-8.1 9.1 1.6 2.9 5.3 7.5-7.6-4.5-2.6-1.2h-.6l-4.6 6.2-3.4 5.3-2.3 4.6-1.6 4-.8 3.4-.3 2.9.3 3.5.6 3.2 1.1 3.1 1.5 2.9 1.7 2.7 2.2 2.4 2.4 2.1 2.6 1.8 2.9 1.5 3.1 1.1 3.2.6 3.4.3Z" />
  <path fill="#d8e6e4"
    d="m860.7 620.9 1.6.3 1.3.9.9 1.3.3 1.6v32.7l-.3 1.5-.9 1.3-1.3.9-1.6.3-1.6-.3-1.3-.9-.8-1.3-.3-1.5V625l.3-1.6.8-1.3 1.3-.9 1.6-.3Z" />
  <path fill="url(#g)"
    d="m860.7 627 3.4-.2 3.3-.7 3-1.1 2.9-1.4 2.7-1.8 2.4-2.1 2.1-2.4 1.8-2.7 1.4-2.9 1.1-3.1.7-3.2.2-3.5-.2-2.9-.8-3.3-1.5-3.8-2.2-4.4-3.2-5.2-4.3-5.9-5.6-6.8-7.2-7.9-8.1 9 1.6 2.9 5.3 7.6-7.6-4.5-2.7-1.2h-.5l-4.6 6.2-3.4 5.3-2.4 4.6-1.5 4-.8 3.4-.3 2.9.3 3.5.6 3.2 1.1 3.1 1.4 2.9 1.8 2.7 2.1 2.4 2.4 2.1 2.7 1.8 2.9 1.4 3 1.1 3.3.7 3.4.2Z" />
  <g fill-opacity=".6" fill="#b4d6cb">
    <path
      d="m730.6 346 22.5-32.7.9-1.8.4-2-.1-2-.7-2-1.3-1.6-1.5-1.2-1.9-.8-2-.1-4.8.2-2.6.5-2.2 1-2 1.5-1.5 2-1 2.3-.5 2.5-1.7 34.2ZM739.9 351.5l31.1-5.7 1.6-.5 1.3-.9 1.1-1.3.7-1.5.3-1.6-.2-1.6-.7-1.4-3.9-3.9-1.7-1.2-1.8-.7-2-.2-2 .3-1.8.7-1.8 1.2-20.2 18.3ZM724.9 340.2l-2.3-28-1-2.6-2.3-1.8-1.4-.4-2.7.5-3.8 3.1-1.2 1.4-.7 1.6-.4 1.7v1.8l.5 1.6.9 1.7 14.4 19.4Z" />
  </g>
</svg>