<svg xmlns="http://www.w3.org/2000/svg" viewBox="0 0 600 600">
  <defs>
    <linearGradient y2=".673" y1=".669" x2=".295" x1="1.446" spreadMethod="pad" id="a"
      gradientUnits="objectBoundingBox">
      <stop stop-opacity="0" stop-color="#e0e5ef" offset="0" />
      <stop stop-color="#e0e5ef" offset="1" />
    </linearGradient>
    <linearGradient y2=".673" y1=".669" x2=".295" x1="1.446" spreadMethod="pad" id="b"
      gradientUnits="objectBoundingBox">
      <stop stop-opacity="0" stop-color="#e0e5ef" offset="0" />
      <stop stop-color="#e0e5ef" offset="1" />
    </linearGradient>
    <linearGradient y2="1" y1=".988" x2=".406" x1=".934" spreadMethod="pad" id="c"
      gradientUnits="objectBoundingBox">
      <stop stop-opacity="0" stop-color="#e0e5ef" offset="0" />
      <stop stop-color="#e0e5ef" offset="1" />
    </linearGradient>
    <linearGradient y2="1" y1=".988" x2=".406" x1=".934" spreadMethod="pad" id="d"
      gradientUnits="objectBoundingBox">
      <stop stop-opacity="0" stop-color="#e0e5ef" offset="0" />
      <stop stop-color="#e0e5ef" offset="1" />
    </linearGradient>
    <linearGradient y2="1" y1=".988" x2=".408" x1=".925" spreadMethod="pad" id="e"
      gradientUnits="objectBoundingBox">
      <stop stop-opacity="0" stop-color="#e0e5ef" offset="0" />
      <stop stop-color="#e0e5ef" offset="1" />
    </linearGradient>
    <linearGradient y2="-.269" y1="1" x2=".5" x1=".5" spreadMethod="pad" id="f"
      gradientUnits="objectBoundingBox">
      <stop stop-color="#a2abb9" offset="0" />
      <stop stop-color="#e7eaf0" offset="1" />
    </linearGradient>
    <linearGradient y2="-.29" y1="1" x2=".041" x1=".5" spreadMethod="pad" id="g"
      gradientUnits="objectBoundingBox">
      <stop stop-color="#a2abb9" offset="0" />
      <stop stop-color="#e7eaf0" offset="1" />
    </linearGradient>
  </defs>
  <path fill-rule="evenodd" fill-opacity=".602" fill="#f3f3fa"
    d="m297.4 77 10.2.2 10.1.7 9.9 1.1 9.7 1.5 9.6 1.9 9.5 2.3 9.3 2.7 9.2 3.1 8.9 3.5 8.7 3.8 10.8 5.3 10.3 5.8 10 6.3 9.6 6.8-17.6.2-2.1.6-2.1 1-3.3 2.8-2.3 3.9-.6 2.1-.2 3.4.2 2.4.6 2.1 1 2.1 2.8 3.3 3.9 2.3 2.1.6 2.4.2h45.2l6.3 7.1 5.9 7.3 5.7 7.5 5.3 7.9h21.5l2.5.2 2.4.6 2.1 1.1 2 1.4 1.7 1.6 1.4 2 1 2.2.6 2.3.3 2.6-.6 4.8-.7 1.9-1.6 2.5-2 2.2-2.5 1.7-2.7 1.1H492l-2.9.3-2.7.7-2.5 1.2-2.2 1.6-1.9 1.9-1.6 2.2-1.2 2.5-.7 2.7-.3 7.9.3 2.9.7 2.7 1.2 2.5 1.6 2.2 1.9 1.9 2.2 1.6 2.5 1.2 2.7.7 2.9.3h67.9l4.3 1.8 1.9 1.3 3.1 3.4 2.1 4.2.7 4.8-.3 3.8-.7 2.7-1.2 2.5-1.6 2.2-1.9 1.9-2.2 1.6-2.5 1.2-2.7.7-2.9.3h-35.2l.8 10.7.3 10.9-.3 10.5-.7 10.3-1.2 10.1-1.6 10-2.2 9.8-2.5 9.7-3 9.5-3.4 9.3-3.8 9.1-4.1 8.9-4.6 8.7-5 8.5-5.3 8.2-5.6 7.9-6 7.7-6.4 7.5-6.6 7.1-7 6.8-7.2 6.6-7.6 6.2-7.8 6-8.1 5.5-8.3 5.2-8.6 4.9-8.9 4.5-9 4.2-9.3 3.7-9.4 3.3-9.7 2.9-9.9 2.6-9.9 2-10.1 1.7-10.3 1.1-10.5.7-10.6.3-10-.2-9.8-.6-9.6-1.1-9.5-1.4-9.3-1.8-11.6-2.8-11.3-3.4-10.9-3.9-10.7-4.5-10.5-5-10.2-5.5-9.7-6-9.5-6.4-9.1-7-8.7-7.3-8.4-7.8-7.9-8.2-7.5-8.6-7-8.9-6.6-9.3-6.1-9.7-5.6-10-5-10.3-4.6-10.5-4-10.9-10.1-.2-1.4-.6-1.3-1-.9-1.3-.6-1.4-.3-1.7.3-1.8.8-1.7 1.2-1.3 1.6-.9 12.8-.2 2.1-.6 2.1-1 3.3-2.8 2.3-3.9.6-2.1.2-2.4-.2-3.4-.6-2.1-1-2.1-2.8-3.3-1.8-1.3-2.1-1-2.1-.6-11.4-.4H52.9l-3.6-.6-1.6-.8-2.7-2.2-1.8-3-.5-1.8v-3.7l1.3-3.3 2.2-2.7 3.1-1.8 3.6-.6h20.2l-.2-10.3.2-9.8.6-9.7 1.1-9.5 1.4-9.3 1.9-9.2 2.8-11.5 3.5-11.1 4-10.8 4.5-10.6H57l-3.8-.3-3.7-.7-3.4-1.2-3.2-1.6-3-2-2.7-2.4-2.4-2.7-2-2.9-1.6-3.3L30 186l-.7-3.6-.3-3.9.2-5.3.7-3.5 1.2-3.3 1.5-3.2 1.9-2.9 2.2-2.6 2.5-2.4 2.8-2 3.1-1.7 3.2-1.3 3.4-.8 3.7-.5H182l3.5-.6 3-1.8 2.1-2.6.8-1.5.6-3.5-.2-1.8-.4-1.7-1.8-3-2.6-2.1-1.5-.8-3.5-.6h-29.3l.7-.6h-14.6l-3.4-.3-3.2-.9-2.9-1.4-2.7-1.9-2.3-2.2-1.9-2.7-1.4-3-.8-3.1-.4-3.5.4-4.5.8-3.2 1.4-3 1.9-2.6 2.3-2.3 2.7-1.9 2.9-1.4 3.2-.8 3.4-.4h84.4l17.7-5.3 18.4-3.8 18.7-2.4 19.4-.8Z" />
  <path fill="url(#a)"
    d="M181.8 214h-7.3l-.3-3.7-.7-3.4-1.1-3.2-1.6-3.1-1.8-2.8-2.3-2.6-2.5-2.2-2.8-1.9-3.1-1.5-3.3-1.2-3.4-.7-3.6-.2-3.7.2-3.4.7-3.2 1.2-3.1 1.5-2.8 1.9-2.6 2.2-2.2 2.6-1.9 2.8-1.5 3.1-1.2 3.2-.7 3.4-.2 3.7h-5.4l-2.2.2-2 .6-1.9 1-3.2 2.9-2.1 3.9-.8 4.6.2 2.4 1.5 4.3 1.2 1.9 3.2 2.9 1.9.9 2 .6 2.2.3h65.7l2.2-.3 2-.6 3.6-2.2 2.7-3.5 1.5-4.3.2-2.4-.2-2.4-1.5-4.3-2.7-3.4-3.6-2.3-2-.6-2.2-.2Z" />
  <path fill="url(#b)"
    d="M368.9 138.6h-5.2l-.4-3.4-.8-3.2-1.4-3-1.9-2.6-2.3-2.3-2.7-1.9-2.9-1.4-3.2-.8-3.4-.4-3.5.4-3.2.8-2.9 1.4-2.7 1.9-2.3 2.3-1.8 2.6-1.5 3-.8 3.2-.3 3.4h-3.9l-3 .6-1.4.7-1.7 1.5-1.4 1.9-.9 2.3-.3 2.5.3 2.6.9 2.2 1.4 2 1.7 1.4 2.8 1.2 48.7.1 3.1-.6 1.3-.7 1.8-1.4 1.4-2 .8-2.2.3-2.6-.3-2.5-.9-2.3-1.3-1.9-1.8-1.5-2.8-1.1-1.6-.2Z" />
  <path fill-rule="evenodd" fill="#e7eaf0"
    d="m284.5 415 40.2.7 37.5 2.1 33.8 3.3 16.3 2.1 14.5 2.3 13 2.5 9.5.3 8.8.7 8.3 1.1 8.2 1.6 7.2 1.8 6.3 2.1 4.7 2 3.9 2 6 4.1 2.4 2.5 1.6 2.4 1 2.4.3 2.5-.2 2-1.7 3.9-1.5 2-2.4 2.3-3.1 2.3-4 2.3-9 3.8-5.5 1.7-11.7 2.6-6.8 1.1-9.8 2.7-11.6 2.6.3 3.2-.3 2.8-.6 2.8-1.2 2.7-1.7 2.8-2.2 2.8-3.1 3-3.7 3.1-4.6 3-10.8 5.5-12.7 4.8-7.4 2.2-9.9 2.4L372 526l-11.7 1.8-11.8 1.2-12.4.7-13.1.3-11.8-.2-11.2-.6-10.7-1-10.8-1.4-9.9-1.7-9.3-2.1-9.2-2.4-8.2-2.6-7.3-2.8-5.4-2.5-9-5.1-7.1-5.6-2.8-2.9-2.2-3-1.5-2.9-15.7-1.4-28.3-3.2-25.8-4.1-22-4.8-9.4-2.6-7.9-2.7-11-4.6-4-2.2-5.6-4.3-1.8-2.1-1.2-1.9-.7-1.9-.2-1.9.3-2 .8-2.1 1.4-2.1 2.1-2.2 3-2.4 3.7-2.3L89 440l5.8-2.4 7.1-2.5 9.3-2.8 10.9-2.8 12.8-2.6 27.1-4.4 15.8-2 32.5-2.9 35.9-1.9 38.3-.7Z" />
  <path fill="url(#c)"
    d="m463.3 400.6.7 2.8-.2 1.6-.7 1.5-1.1 1.1-1.4.8-13.2.3.1 14.9.5 8.4h-9l.3-6.3.1-15.9-1.2.7-1.2.2-1.8-.5-1.3-1.4-7.1-.3-1.9-.8-1.5-1.3-.8-1.1-.4-1.2-.1-2.1 2.5-6.7 1.7-2.1 9.8-18 2.8-3.7 2.6-1.3 1.6-.2 2.2.3 1.9.9 1.5 1.3 9 17 2.5 1.5 1.7 2.4.7 3-.3 2.1 1 2.1Z" />
  <path fill="url(#d)"
    d="m503.3 420.6.7 2.8-.2 1.6-.7 1.5-1.1 1.1-1.4.8-13.2.3.1 14.9.5 8.4h-9l.3-6.3.1-15.9-1.2.7-1.2.2-1.8-.5-1.3-1.4-7.1-.3-1.9-.8-1.5-1.3-.8-1.1-.4-1.2-.1-2.1 2.5-6.7 1.7-2.1 9.8-18 2.8-3.7 2.6-1.3 1.6-.2 2.2.3 1.9.9 1.5 1.3 9 17 2.5 1.5 1.7 2.4.7 3-.3 2.1 1 2.1Z" />
  <path fill="url(#e)"
    d="m150 413.4 1 4-.6 3-.7 1.4-1.5 1.6-1.9 1.1-18.7.4.2 21.1.7 12h-12.6l.4-8.9.1-22.7-1 .8-2.3.6-2.6-.7-1.8-2-9.9-.5-1.9-.6-1.6-1-1.4-1.3-1-1.6-.7-1.8-.1-2.9 2.4-6 1.1-3.6L98 403l13.8-25.5 1.9-2.9 2.1-2.4 1.6-1.2 2-.7 2.3-.3 3.9.7 1.7 1 2.8 2.7 12 23.3 1.9.9 1.6 1.2 1.4 1.6 1.1 1.8.7 2 .2 2.2-.5 3 1.5 3Z" />
  <path fill="#d1d6e2"
    d="m336 466.1-.3 1.1-.8 1.2-1.6 1.2-3 1.4-4.4 1.5-11 1.9-13.4.7-13.4-.7-11-1.9-4.4-1.5-3-1.4-1.6-1.2-.8-1.2-.3-1.1.3-1.1.8-1.2 1.6-1.2 3-1.4 4.4-1.5 11-1.9 13.4-.7 13.4.7 11 1.9 4.4 1.5 3 1.4 1.6 1.2.8 1.2.3 1.1Z" />
  <path fill-rule="evenodd" fill="#d9dfe8"
    d="M216 263h50l8.3 13.2 69.6-.2 4.4.3 4.2.9 3.9 1.3 3.7 1.9 3.4 2.3 3.1 2.7 2.7 3 2.3 3.4 1.9 3.7 1.3 3.9.9 4.2.3 4.4v101H216V263Z" />
  <path fill-rule="evenodd" fill="#a2abb9" d="M233 295h130v144H233Z" />
  <path fill-rule="evenodd" fill="#fff" d="M230 309h136v127H230Z" />
  <path fill-rule="evenodd" fill="#c8cede" d="M229 318h141v117H229Z" />
  <path fill="url(#f)" d="M203 331h190l-17.3 108H220.3Z" />
  <path fill-rule="evenodd" fill="#d9dfe8"
    d="m316.5 378 1.4.3 1.1.7.7 1.1.3 1.4-.3 1.4-.7 1.1-1.1.7-1.4.3-1.4-.3-1.1-.7-.7-1.1-.3-1.4.3-1.4.7-1.1 1.1-.7 1.4-.3ZM330.5 378h24l1.4.3 1.1.7.7 1.1.3 1.4-.3 1.4-.7 1.1-1.1.7-1.4.3h-24l-1.4-.3-1.1-.7-.7-1.1-.3-1.4.3-1.4.7-1.1 1.1-.7 1.4-.3ZM315.5 393h38l1.4.3 1.1.7.7 1.1.3 1.4-.3 1.4-.7 1.1-1.1.7-1.4.3h-38l-1.4-.3-1.1-.7-.7-1.1-.3-1.4.3-1.4.7-1.1 1.1-.7 1.4-.3ZM303 256l-.3 2.7-.6 2.5-1.1 2.4-1.5 2.1-1.8 1.8-2.1 1.5-2.4 1.1-2.5.6-2.7.3-2.7-.3-2.5-.6-2.4-1.1-2.1-1.5-1.8-1.8-1.5-2.1-1.1-2.4-.6-2.5-.3-2.7.3-2.7.6-2.5 1.1-2.4 1.5-2.1 1.8-1.8 2.1-1.5 2.4-1.1 2.5-.6 2.7-.3 2.7.3 2.5.6 2.4 1.1 2.1 1.5 1.8 1.8 1.5 2.1 1.1 2.4.6 2.5.3 2.7Z" />
  <path fill-rule="evenodd" fill="#fff"
    d="m288 261-5.9 3.1 1.1-6.6-4.7-4.6 6.6-.9 2.9-6 2.9 6 6.6.9-4.7 4.6 1.1 6.6Z" />
  <path fill="url(#g)"
    d="m374 219.8-9.1 11.5-26.5-35.7 53.4 2.4-8 10.7-38.2-9.8 34.4 14.9 6.1 10.8Z" />
  <path stroke-linecap="round" stroke-dasharray="4 4" stroke="#d1d6e2" fill="none"
    d="m396 228 8.3 5.7 7.3 5.7 6.4 5.7 5.5 5.6 4.8 5.6 4 5.5 3.3 5.6 2.7 5.6 2.1 5.6 1.6 5.6.9 5.7.5 5.8-.2 6-.7 6-1.3 6.3-1.9 6.5-2.6 6.8-3.3 7-4.1 7.3-5 7.6-5.9 8-6.9 8.4"
    data-follow-stroke="#d1d6e2" />
</svg>