<svg t="1742279648125" class="icon" viewBox="0 0 1024 1024" version="1.1" xmlns="http://www.w3.org/2000/svg" p-id="1457" width="32" height="32" xmlns:xlink="http://www.w3.org/1999/xlink"><path d="M939 302L661 21q-7-6-15-11l-7-4q-14-6-29-6H265q-31 1-51.5 21T192 72v880q1 31 21.5 51t51.5 21h623q31-1 50.5-21t20.5-51V352q0-29-20-50M647 110l201 202H647V110m240 842H264V72h311v240q1 31 21.5 51t51.5 21h239v568M488 515h-69v302h56V613l83 192h42l83-192v204h56V515h-68l-92 216-91-216z" p-id="1458" fill="#000000"></path></svg>