<svg t="1741947348478" class="icon" viewBox="0 0 1024 1024" version="1.1"
  xmlns="http://www.w3.org/2000/svg" p-id="1062" width="24" height="24"
  xmlns:xlink="http://www.w3.org/1999/xlink">
  <path
    d="M769.625 604.25L905.75 740.375 769.625 876.5V798.875s-135-15.1875-213.75 97.3125c0 0 24.75-214.3125 213.75-214.3125v-77.625zM798.875 118.25c-58.5 0-102.375 48.375-102.375 101.8125 0 19.6875 5.0625 39.375 14.625 53.4375L618.875 366.3125c-34.3125-24.75-82.6875-38.8125-126.5625-38.8125-38.8125 0-72.5625 9.5625-101.8125 28.6875l-82.6875-82.6875c9.5625-14.0625 14.625-33.75 14.625-53.4375C327.5 166.625 278.5625 118.25 220.0625 118.25 166.625 118.25 118.25 166.625 118.25 220.0625c0 58.5 48.375 102.375 101.8125 102.375 19.6875 0 34.3125-5.0625 48.9375-14.625L346.625 385.4375c-19.125 38.8125-38.8125 77.625-38.8125 121.5 0 43.875 19.6875 87.75 43.875 117l-78.1875 77.625c-14.0625-9.5625-33.75-14.625-53.4375-14.625C162.125 686.9375 118.25 735.3125 118.25 788.75c0 58.5 48.375 106.875 101.8125 106.875 58.5 0 102.375-48.375 102.375-101.8125 0-19.6875-5.0625-33.75-14.625-48.375l82.6875-82.6875c29.25 19.125 63 29.25 97.3125 29.25 43.3125 0 82.6875-14.625 116.4375-43.875l26.4375 26.4375c17.4375-11.8125 36.5625-21.9375 58.5-28.6875l-41.0625-41.625c19.125-29.25 29.25-63 29.25-101.8125 0-34.3125-10.125-68.0625-29.25-97.3125L745.4375 307.8125c14.625 9.5625 33.75 14.625 48.375 14.625 58.5 0 101.8125-48.9375 101.8125-102.375C900.6875 166.625 852.3125 118.25 798.875 118.25zM220.625 273.5c-29.8125 0-54-24.1875-54-53.4375s24.1875-53.4375 54-53.4375 53.4375 23.625 53.4375 53.4375-24.1875 53.4375-53.4375 53.4375z"
    p-id="1063"></path>
</svg>