<svg t="1741947482313" class="icon" viewBox="0 0 1024 1024" version="1.1"
  xmlns="http://www.w3.org/2000/svg" p-id="1183" width="24" height="24"
  xmlns:xlink="http://www.w3.org/1999/xlink">
  <path
    d="M842 123.875H183.875a60.178125 60.178125 0 0 0-60 60v148.125a60.178125 60.178125 0 0 0 60 60h658.125a60.178125 60.178125 0 0 0 60-60V183.875a60.178125 60.178125 0 0 0-60-60z m-30 200.625H213.875a22.5 22.5 0 0 1-22.5-22.5v-88.125a22.5 22.5 0 0 1 22.5-22.5h598.125a22.5 22.5 0 0 1 22.5 22.5v88.125a22.5 22.5 0 0 1-22.5 22.5zM392 452H183.875a60.178125 60.178125 0 0 0-60 60v330a60.178125 60.178125 0 0 0 60 60h208.125a60.178125 60.178125 0 0 0 60-60V512a60.178125 60.178125 0 0 0-60-60z m-30 382.5H213.875a22.5 22.5 0 0 1-22.5-22.5V542a22.5 22.5 0 0 1 22.5-22.5h148.125a22.5 22.5 0 0 1 22.5 22.5v270a22.5 22.5 0 0 1-22.5 22.5z m505.3125-362.8125H532.353125c-18.928125 0-34.771875 15.4875-34.40625 34.40625A33.75 33.75 0 0 0 531.6875 539.1875h334.959375c18.928125 0 34.771875-15.4875 34.40625-34.40625A33.75 33.75 0 0 0 867.3125 471.6875z m0 344.0625H532.353125c-18.928125 0-34.771875 15.4875-34.40625 34.40625A33.75 33.75 0 0 0 531.6875 883.25h334.959375c18.928125 0 34.771875-15.4875 34.40625-34.40625A33.75 33.75 0 0 0 867.3125 815.75z m0-172.03125H532.353125c-18.928125 0-34.771875 15.4875-34.40625 34.40625a33.75 33.75 0 0 0 33.75 33.09375h334.95c18.928125 0 34.771875-15.4875 34.40625-34.40625A33.75 33.75 0 0 0 867.3125 643.71875z"
    p-id="1184"></path>
</svg>